<svg xmlns="http://www.w3.org/2000/svg" fill="none" viewBox="0 0 28 20" aria-hidden="true"><path fill="#fff" d="M0 0h28v20H0V0z"/><path fill="#FF202D" fill-rule="evenodd" d="M0 6.667h28V0H0v6.667z" clip-rule="evenodd"/><path fill="#1895DB" fill-rule="evenodd" d="M10.667 5.333l.666-.666.667.666v1.334h-1.333V5.333zm2.666 0L14 4.667l.667.666v1.334h-1.334V5.333zm3.334-.666L16 5.333v1.334h1.333V5.333l-.666-.666z" clip-rule="evenodd" opacity=".5"/><path fill="#191F94" fill-rule="evenodd" d="M12.667 4.667L12 5.333v1.334h1.333V5.333l-.666-.666zm2.666 0l-.666.666v1.334H16V5.333l-.667-.666z" clip-rule="evenodd" opacity=".5"/><path fill="#2027AC" fill-rule="evenodd" d="M0 20h28v-6.667H0V20z" clip-rule="evenodd"/><path fill="url(#paint0_linear)" fill-rule="evenodd" d="M12 6.667h-.667L10.667 8H12v1.333h-1.333v1.334H12V12h-1.333v1.333H12v1.334h1.333v-1.334h1.334v1.334H16v-1.334h1.333V12H16v-1.333h1.333V9.333H16V8h1.333l-.666-1.333H16V8h-1.333V6.667h-1.334V8H12V6.667zm1.333 2.666V8h1.334v1.333h-1.334zm0 1.334V9.333H12v1.334h1.333zm1.334 0h-1.334V12H12v1.333h1.333V12h1.334v1.333H16V12h-1.333v-1.333zm0 0H16V9.333h-1.333v1.334z" clip-rule="evenodd"/><defs><linearGradient id="paint0_linear" x1="10.667" x2="10.667" y1="6.667" y2="14.667" gradientUnits="userSpaceOnUse"><stop stop-color="#FF212E"/><stop offset="1" stop-color="#FD0D1B"/></linearGradient></defs></svg>