<svg xmlns="http://www.w3.org/2000/svg" fill="none" viewBox="0 0 28 20" aria-hidden="true"><g clip-path="url(#clip0)"><path fill="#fff" d="M0 0h28v20H0V0z"/><path fill="#E2243B" d="M0 0h28v20H0V0z"/><path fill="#262626" fill-rule="evenodd" d="M0 0h28L14 20 0 0z" clip-rule="evenodd"/><g filter="url(#filter0_d)"><path fill="#FFCF3C" fill-rule="evenodd" d="M14 11l-2.296 2.543.175-3.422-3.422.175L11 8 8 5.333 11.879 6l-.546-4L14 5.333 16.667 2l-.546 4L20 5.333 17 8l2.543 2.296-3.422-.175.175 3.422L14 11z" clip-rule="evenodd"/></g><g filter="url(#filter1_d)"><path fill="#1984D8" fill-rule="evenodd" d="M0 13.333h28V8H0v5.333z" clip-rule="evenodd"/></g><path fill="#fff" fill-rule="evenodd" d="M0 20h28v-6.667H0V20z" clip-rule="evenodd"/></g><defs><filter id="filter0_d" width="20" height="19.543" x="4" y="-2" color-interpolation-filters="sRGB" filterUnits="userSpaceOnUse"><feFlood flood-opacity="0" result="BackgroundImageFix"/><feColorMatrix in="SourceAlpha" values="0 0 0 0 0 0 0 0 0 0 0 0 0 0 0 0 0 0 127 0"/><feOffset/><feGaussianBlur stdDeviation="2"/><feColorMatrix values="0 0 0 0 0 0 0 0 0 0 0 0 0 0 0 0 0 0 0.06 0"/><feBlend in2="BackgroundImageFix" result="effect1_dropShadow"/><feBlend in="SourceGraphic" in2="effect1_dropShadow" result="shape"/></filter><filter id="filter1_d" width="36" height="13.333" x="-4" y="4" color-interpolation-filters="sRGB" filterUnits="userSpaceOnUse"><feFlood flood-opacity="0" result="BackgroundImageFix"/><feColorMatrix in="SourceAlpha" values="0 0 0 0 0 0 0 0 0 0 0 0 0 0 0 0 0 0 127 0"/><feOffset/><feGaussianBlur stdDeviation="2"/><feColorMatrix values="0 0 0 0 0 0 0 0 0 0 0 0 0 0 0 0 0 0 0.06 0"/><feBlend in2="BackgroundImageFix" result="effect1_dropShadow"/><feBlend in="SourceGraphic" in2="effect1_dropShadow" result="shape"/></filter><clipPath id="clip0"><path fill="#fff" d="M0 0h28v20H0z"/></clipPath></defs></svg>