<svg xmlns="http://www.w3.org/2000/svg" fill="none" viewBox="0 0 28 20" aria-hidden="true"><path fill="#fff" d="M0 0h28v20H0V0z"/><path fill="#D82332" fill-rule="evenodd" d="M0 5.333h28V0H0v5.333zM0 20h28v-5.333H0V20z" clip-rule="evenodd"/><path fill="#064A89" fill-rule="evenodd" d="M13.068 10.753l-.285.265c.257.072.614-.012.756-.265h-.471zm-2.295.18c.192.193.51.17.703.05a.656.656 0 01.454-.118c.013.108.04.248.09.385h-1.142a3.933 3.933 0 01-.105-.317zm.21.515a.557.557 0 01.554.054c.183.141.485.103.633.023.057.092.126.183.209.253h-1.222a2.705 2.705 0 01-.173-.33zm5.315.877c.062-.066.12-.135.174-.208-.08-.01-.17-.067-.27-.116-.18-.09-.35-.09-.504.016-.227.157-.51.196-.732.04-.242-.174-.467-.136-.656-.027a.747.747 0 01-.423.115.748.748 0 01-.423-.115c-.19-.11-.414-.147-.657.026-.22.157-.505.118-.732-.039-.153-.106-.325-.106-.505-.016-.098.05-.19.106-.268.116.047.064.12.153.173.208h4.823zm-.591.536c.05-.032.19-.138.258-.192-.075.016-.248-.04-.337-.087-.26-.135-.43-.122-.622-.02-.193.104-.464.158-.663.05-.2-.11-.34-.139-.445-.139-.104 0-.246.03-.445.138-.2.11-.47.055-.663-.048-.192-.103-.363-.116-.622.02-.09.046-.261.102-.337.086.07.054.208.16.258.192h3.618zm-1.14-1.066a.573.573 0 01-.172-.182c-.092-.138-.237-.215-.455-.215-.218 0-.363.077-.454.215a.57.57 0 01-.174.182h1.256zm-.357-.495a1.291 1.291 0 01-.085-.225.857.857 0 01-.205.023.858.858 0 01-.205-.023c-.021.078-.05.153-.085.225h.58zm.526-.547l.284.265c-.257.072-.613-.012-.755-.265h.47zm2.364.18c-.193.193-.512.17-.704.05a.656.656 0 00-.454-.118 1.84 1.84 0 01-.09.385h1.142c.028-.07.083-.235.105-.317zm-.171.515a.556.556 0 00-.552.054c-.183.141-.486.103-.634.023-.056.095-.126.18-.21.253h1.223c.05-.08.157-.277.173-.33zm-1.77 1.624a3.232 3.232 0 01-2.482 0c.082-.01.19-.05.279-.1.142-.08.4-.096.524-.016.123.08.27.16.438.16.168 0 .316-.08.439-.16s.382-.064.524.016c.088.05.196.09.278.1" clip-rule="evenodd"/><path fill="#514537" fill-rule="evenodd" d="M14.625 6.727c-.691-.144-1.313-.061-1.313.6v1.809c0 .198.004.224.237.279l1.101.26v-1.86c-.429-.049-.593-.294-.593-.578 0-.276.19-.456.568-.51zm-1.771 5.102c-.385 0-.79-.34-.79-.988V9.23c0-.146.017-.167-.017-.2-.02-.02.022-.05.05-.08.043-.043.073-.079.015-.137-.057-.059-.033-.074.003-.111.037-.037.05-.074.016-.11-.035-.034-.043-.046-.005-.084.038-.039.023-.055-.01-.087-.03-.032-.046-.055-.005-.096.04-.04.042-.046.088-.046h.19c.044 0 .044.013.007.051-.048.049-.062.068-.008.123.055.056.052.074.018.11-.052.052-.075.088-.022.142.053.054.057.078.017.119-.04.04-.044.077 0 .122.034.034.036.054.036.115v1.644c0 .276.196.443.568.443.373 0 .5-.154.606-.257-.069.494-.271.937-.757.937v.001zm1.086-1.574c.053.016.103.093.103.176h.103c0-.07-.03-.18-.085-.247a.236.236 0 00-.007-.048c.038-.048.093-.125.092-.199-.001-.046-.055-.045-.062-.008-.005.03-.025.077-.063.093 0-.059-.033-.13-.08-.13-.048 0-.08.071-.08.13-.039-.016-.059-.062-.064-.093-.006-.037-.06-.038-.062.008-.001.074.054.151.092.2a.233.233 0 00-.007.047.442.442 0 00-.085.247h.103c0-.083.05-.16.103-.176" clip-rule="evenodd"/><path fill="#514537" fill-rule="evenodd" d="M13.412 10.255c.052.016.102.093.102.176h.103c0-.07-.03-.18-.085-.247a.223.223 0 00-.007-.048c.038-.048.093-.125.092-.199-.001-.046-.056-.045-.062-.008-.005.03-.025.077-.063.093 0-.059-.033-.13-.08-.13-.048 0-.08.071-.08.13-.039-.016-.059-.062-.064-.093-.006-.037-.06-.038-.062.008-.001.074.054.151.092.2a.248.248 0 00-.007.047.443.443 0 00-.085.247h.103c0-.083.05-.16.103-.176zm-.529 0c.052.016.102.093.102.176h.103c0-.07-.03-.18-.085-.247a.229.229 0 00-.007-.048c.038-.048.093-.125.092-.199-.001-.046-.056-.045-.062-.008-.005.03-.025.077-.063.093 0-.059-.033-.13-.08-.13-.048 0-.081.071-.081.13-.038-.016-.058-.062-.063-.093-.007-.037-.06-.038-.062.008-.001.074.054.151.092.2a.24.24 0 00-.007.047.441.441 0 00-.085.247h.103c0-.083.05-.16.103-.176zm1.587 0c-.052.016-.103.093-.103.176h-.102c0-.07.03-.18.084-.247 0-.017.003-.032.007-.048-.038-.048-.093-.125-.091-.199 0-.046.055-.045.061-.008.005.03.025.077.063.093 0-.059.034-.13.08-.13.048 0 .081.071.081.13.038-.016.058-.062.063-.093.007-.037.06-.038.062.008.002.074-.054.151-.092.2a.214.214 0 01.008.047.44.44 0 01.084.247h-.103c0-.083-.05-.16-.102-.176zm.529 0c-.052.016-.103.093-.103.176h-.102c0-.07.03-.18.084-.247 0-.016.003-.032.007-.048-.038-.048-.093-.125-.091-.199 0-.046.055-.045.061-.008.005.03.025.077.063.093 0-.059.034-.13.08-.13.048 0 .081.071.081.13.038-.016.058-.062.063-.093.007-.037.061-.038.062.008.002.074-.054.151-.091.2a.296.296 0 01.007.047.44.44 0 01.084.247h-.103c0-.083-.05-.16-.102-.176zm-2.428.283h2.778v.133h-2.778v-.133z" clip-rule="evenodd"/><path fill="#514537" fill-rule="evenodd" d="M15.022 11.83c.385 0 .79-.34.79-.989v-1.61c0-.147-.017-.168.017-.201.02-.02-.023-.05-.05-.08-.043-.043-.073-.079-.015-.137.058-.059.033-.074-.003-.111-.037-.037-.05-.074-.016-.11.035-.034.043-.046.005-.084-.038-.039-.023-.055.01-.087.03-.032.046-.055.005-.096-.04-.04-.042-.046-.088-.046h-.19c-.043 0-.044.013-.007.051.048.049.062.068.008.123-.055.056-.052.074-.018.11.052.052.075.088.022.142-.053.054-.057.078-.017.119.04.04.044.077 0 .122-.034.034-.036.054-.036.115v1.644c0 .276-.196.443-.568.443-.373 0-.499-.154-.606-.257.069.494.271.937.757.937" clip-rule="evenodd"/><path fill="#EEA339" fill-rule="evenodd" d="M12.571 9.674v-.212l.556.212h-.556zm-.661.1l-1.243-.17c.036-.27.104-.536.202-.787l1.04.42v.536h.001zm2.566-2.078l.221-.922c.259.064.51.16.748.286l-.713 1.386.003-.696c-.082 0-.208-.012-.259-.054zm-2.538 2.167l-1.265-.078c-.017.27 0 .542.048.81 0 0 1.217.008 1.217 0v-.732zm-.012-.867c-.041-.055-.016-.084.028-.113.044-.029.038-.05.016-.093-.022-.04-.044-.086-.003-.13.041-.046.025-.065-.006-.098-.032-.032-.035-.067-.007-.093.029-.025.022-.044.004-.07-.02-.026-.057-.078-.023-.11l-.517-.44c-.171.21-.317.438-.434.682l.942.465zm1.237.238l-.616-.606c.087-.088.096-.103.034-.165-.067-.068-.07-.075.067-.214.047-.047.02-.08-.045-.08h-.406c-.035 0-.062.001-.087.027l-.491-.482c.187-.196.396-.367.622-.51l.922 1.506v.524zm-.64.093v-.32c0-.046-.003-.064-.038-.099-.035-.035-.017-.052.01-.09l.583.493v.29l-.555-.274zm.547-.881v-.71c0-.463.025-.694.091-.74l-.053-.222c-.259.071-.51.167-.748.293l.71 1.38zm2.279 1.228v-.212l-.555.212h.555zm.609.1l1.242-.17a3.382 3.382 0 00-.202-.787l-1.04.42v.536zm0 .09l1.265-.079c.017.27 0 .542-.048.81 0 0-1.217.008-1.217 0v-.732zm-.04-.868c.04-.055.015-.084-.029-.113-.044-.029-.038-.05-.016-.093.023-.04.045-.086.004-.13-.042-.046-.026-.065.006-.098.031-.032.035-.067.006-.093-.028-.025-.022-.044-.003-.07.019-.026.056-.078.023-.11l.516-.44c.17.208.317.437.434.682l-.941.465zm-1.124.238l.615-.606c-.087-.088-.096-.103-.034-.165.067-.068.07-.075-.067-.214-.047-.047-.02-.08.046-.08h.405c.035 0 .062.001.088.027l.49-.482a3.294 3.294 0 00-.622-.51l-.921 1.506v.524zm.556.093l-.001-.32c0-.046.003-.064.038-.099.035-.035.017-.052-.01-.09l-.583.493v.29l.555-.274" clip-rule="evenodd"/><path fill="#D82332" fill-rule="evenodd" d="M12.148 9.032c.022.023.032.045.032.1v1.716c0 .57.34.888.69.888.323 0 .534-.298.645-.645-.142.113-.35.148-.55.148-.23 0-.602-.157-.602-.497V9.077c0-.045-.044-.045-.215-.045zm2.013-2.248c-.44-.045-.848.048-.848.658v1.62c0 .272-.021.24.204.296.41.103.456.117.953.232V7.94c-.424-.047-.608-.329-.608-.641 0-.25.108-.483.299-.515zm1.576 2.248c-.022.023-.031.045-.031.1v1.716c0 .57-.341.888-.692.888-.322 0-.533-.298-.644-.645.143.113.35.148.55.148.23 0 .602-.157.602-.497V9.077c0-.045.045-.045.215-.045z" clip-rule="evenodd"/><mask id="a" width="8" height="8" x="10" y="6" maskUnits="userSpaceOnUse"><path fill="#fff" fill-rule="evenodd" d="M14 13.333a3.333 3.333 0 100-6.667 3.333 3.333 0 000 6.667z" clip-rule="evenodd"/></mask><g mask="url(#a)"><path fill="#064A89" fill-rule="evenodd" d="M14 18.667a3.333 3.333 0 100-6.666 3.333 3.333 0 000 6.666z" clip-rule="evenodd"/></g></svg>